<svg width="36" height="36" viewBox="0 0 36 36" fill="none" xmlns="http://www.w3.org/2000/svg">
<g clip-path="url(#clip0_380_1351)">
<path d="M36 18C36 8.05887 27.9412 0 18 0C8.05887 0 0 8.05887 0 18C0 27.9412 8.05887 36 18 36C27.9412 36 36 27.9412 36 18Z" fill="url(#paint0_radial_380_1351)"/>
<path d="M29.9729 13.283C30.0763 13.0357 30.1645 12.822 30.2399 12.3814C30.3537 11.7064 30.4359 11.2192 30.2105 10.7604C30.1377 10.6114 30.0896 10.5693 29.8447 10.3679L29.8366 10.3614C29.6622 10.2182 29.4239 10.0226 29.0622 9.68609C28.3674 9.04026 28.0191 8.71653 27.8129 8.30151C27.5199 7.71331 26.3845 7.07996 25.831 6.89008C24.6099 6.472 23.4523 6.60235 22.1124 6.75409L21.9413 6.77324C21.7864 6.7907 21.6296 6.80834 21.4708 6.82399C20.8062 6.89216 20.1374 7.2795 19.5985 7.59158L19.5922 7.5952C19.3861 7.71519 19.197 7.82483 19.0273 7.90553C19.9425 7.90742 20.9004 8.04081 21.6429 8.49561C22.8865 9.25766 23.1394 10.8208 23.222 12.249C23.2458 12.6584 23.2175 13.1364 23.1877 13.6419C23.1211 14.7732 23.0458 16.0554 23.634 16.222C24.1396 16.366 25.6003 17.0075 27.3004 17.8757C27.3447 17.8983 27.4537 17.8929 27.5056 17.8894C28.1049 17.8178 28.5541 17.2217 28.8222 16.8655C29.1545 16.4253 29.2924 16.0166 29.375 15.7717C29.4763 15.4724 29.4978 15.304 29.5296 15.0547L29.5297 15.0531L29.5309 15.044L29.5321 15.0344C29.5519 14.8781 29.5748 14.7009 29.6203 14.4594C29.735 13.8558 29.8615 13.551 29.9729 13.283Z" fill="white"/>
<path d="M24.0994 18.4795C24.1556 18.3927 24.119 18.2737 24.0211 18.2403C23.7659 18.1534 23.5265 18.0842 23.3367 18.052C22.6199 17.9316 22.06 18.3558 21.8762 18.4954C21.7025 18.627 21.6974 18.6496 21.684 18.7096C21.6527 18.8545 21.6026 19.0223 21.3768 19.3315C20.9519 19.9155 20.6648 20.0966 20.4554 20.2281L20.4535 20.2293C20.3048 20.3236 20.2137 20.3813 20.0973 20.5685C20.002 20.7241 20.0044 20.8746 20.0227 21.232C20.0326 21.4115 20.0441 21.6341 20.0368 21.9085V21.9691C20.036 22.2667 20.0297 22.507 20.0197 22.7022C20.0144 22.807 20.1108 22.8905 20.2078 22.8507C20.2224 22.8446 20.2364 22.8387 20.2504 22.8326L20.2542 22.831C20.3495 22.7893 20.458 22.742 20.7022 22.7041C22.1021 22.491 22.3039 22.447 22.5011 22.3147C22.7399 22.1554 22.7602 21.972 22.7827 21.5722C22.8037 21.1902 22.8305 20.714 23.1599 20.1483C23.2528 19.9879 23.3636 19.7823 23.4805 19.5645C23.7207 19.1192 23.9225 18.7521 24.0994 18.4795Z" fill="white"/>
<path d="M18.4866 24.7057C18.456 24.7454 18.4206 24.7637 18.3691 24.7664C18.2227 24.7723 18.1199 24.7363 18.0518 24.6543C17.9074 24.4785 17.9269 24.1254 17.9606 23.9191L18.5525 23.7612C18.5989 24.0745 18.6207 24.5311 18.4866 24.7057Z" fill="white"/>
<path d="M18.5136 22.8553C18.5132 22.7536 18.524 22.6564 18.5339 22.5701C18.54 22.5235 18.5461 22.4647 18.5477 22.4252C18.4461 22.4099 18.2864 22.4436 18.164 22.4699C18.1029 22.4841 18.046 22.4962 17.9902 22.5043C17.9626 22.5584 17.9637 22.7399 17.9645 22.8542V22.8597L17.9646 22.908C17.9649 22.9401 17.965 22.9729 17.9645 23.0054C17.9643 23.0315 17.9633 23.0583 17.9622 23.0854C17.9615 23.1043 17.9608 23.1234 17.9602 23.1425L17.9599 23.1516C17.9575 23.2116 17.9543 23.2954 17.9572 23.3524C18.1648 23.3559 18.3226 23.3559 18.5076 23.2887C18.5196 23.2258 18.5178 23.095 18.5164 22.9991L18.516 22.9685C18.5151 22.9395 18.5145 22.91 18.5141 22.8805L18.5136 22.8553Z" fill="white"/>
<path d="M17.438 24.5235C17.4093 24.827 17.3156 25.2022 17.031 25.2592C16.9029 25.2854 16.8411 25.2469 16.802 25.2102C16.6098 25.0322 16.5792 24.4941 16.6061 24.1091C16.7341 24.1115 16.9018 24.0828 17.1006 24.0442C17.2218 24.0201 17.3425 23.9934 17.4384 23.9712C17.4495 24.1138 17.4575 24.3171 17.438 24.5235Z" fill="white"/>
<path d="M16.6621 23.6596L17.3041 23.4345C17.3065 23.1799 17.3065 22.7611 17.2894 22.5703L16.8835 22.5925L16.8701 22.5906C16.8679 22.5906 16.864 22.5902 16.864 22.5902L16.8585 22.5899C16.8349 22.5899 16.8261 22.5975 16.8219 22.6014C16.8093 22.6122 16.7645 22.6626 16.7535 22.8265C16.7382 23.0597 16.6946 23.4105 16.6621 23.6596Z" fill="white"/>
<path d="M16.2667 23.2347C16.2305 23.3314 16.1876 23.605 16.1608 23.7977L15.3564 23.7732C15.4018 23.524 15.4647 23.2707 15.5339 23.0686C15.6037 22.8679 15.679 22.7173 15.7482 22.675C15.8288 22.6265 16.0065 22.6157 16.1154 22.7086C16.2923 22.8594 16.3413 23.0321 16.2667 23.2347Z" fill="white"/>
<path d="M15.7489 25.8341C15.8347 25.8251 15.9039 25.7817 15.9663 25.6965C16.2136 25.3598 16.2063 24.566 16.1806 24.2585C16.0098 24.2683 15.6499 24.333 15.3162 24.4091L15.3161 24.416C15.3067 24.7861 15.288 25.5417 15.5391 25.7734C15.5934 25.8243 15.6613 25.8439 15.7489 25.8341Z" fill="white"/>
<path d="M14.917 23.7516L14.9018 23.7922C14.8681 23.8818 14.8361 23.9668 14.8112 24.0429C14.7176 24.0723 14.4317 24.0467 14.1396 23.9822L14.3403 22.7165C14.6702 22.6289 15.0528 22.6007 15.1453 22.6988C15.2671 22.8282 15.0224 23.4756 14.917 23.7516Z" fill="white"/>
<path d="M13.836 26.1686C14.1623 26.172 14.3962 26.0821 14.5522 25.8899C14.7503 25.6438 14.7889 25.2607 14.7769 24.9534C14.7726 24.8528 14.7635 24.7607 14.7525 24.6845L13.6629 24.6191C13.4853 25.0514 13.3079 25.7278 13.489 26.0148C13.5295 26.0789 13.6101 26.1647 13.836 26.1686Z" fill="white"/>
<path d="M11.7792 15.6325L11.7837 15.6268C11.777 15.6256 11.7702 15.625 11.7638 15.6243L11.7619 15.6242L11.7453 15.6229C11.6755 15.613 11.6112 15.6089 11.5543 15.6089C11.4105 15.6089 11.3101 15.6363 11.2746 15.6895C11.1772 15.8333 11.1496 16.0243 11.1087 16.3132L11.1067 16.327C11.0795 16.515 11.046 16.7472 10.9833 17.0172C10.9711 17.0699 10.9661 17.1023 10.9612 17.1439C10.9374 17.3351 10.9 17.5014 10.5958 18.203C10.4803 18.4686 10.5067 18.5873 10.547 18.7684L10.5473 18.7698C10.5546 18.8011 10.5615 18.8323 10.5676 18.8641C10.5925 18.9326 10.7713 19.0613 10.8882 19.1175C10.8038 18.5342 10.9922 18.1009 11.1367 17.7703C11.1826 17.6652 11.2223 17.5738 11.2468 17.4943C11.2818 17.3754 11.2837 17.2733 11.286 17.1461L11.2861 17.1405C11.2898 16.8927 11.2945 16.5848 11.5394 16.0405C11.6292 15.8398 11.7048 15.7352 11.7709 15.6438L11.7738 15.6397C11.7755 15.6372 11.7774 15.6349 11.7792 15.6325Z" fill="white"/>
<path d="M13.6103 10.0124C13.6806 9.83429 13.746 9.67031 13.8007 9.53809C13.6795 9.56091 13.5638 9.60301 13.4687 9.66913C13.2562 9.81428 13.1932 9.98816 13.0598 10.4025L13.0578 10.4085C12.9342 10.7889 12.7656 11.308 12.352 12.0044C12.2951 12.1005 12.2431 12.1868 12.1946 12.2663C11.9528 12.6642 11.8706 12.8087 11.8989 12.9409C11.9368 13.1183 12.2716 13.2592 12.476 13.2817C12.4007 12.8809 12.4214 12.5122 12.5372 12.1824C12.6024 11.9962 12.6886 11.862 12.7964 11.6941L12.8004 11.6878L12.8079 11.6764C12.9026 11.5294 13.0204 11.3467 13.1708 11.0615C13.2602 10.8921 13.4463 10.4248 13.6103 10.0124Z" fill="white"/>
<path fill-rule="evenodd" clip-rule="evenodd" d="M23.5564 16.7027C22.5755 16.4248 22.66 14.9906 22.7416 13.6045C22.7705 13.1139 22.7978 12.6501 22.7755 12.2709C22.7002 10.9733 22.4822 9.56024 21.4384 8.92054C20.316 8.23409 18.4796 8.39055 17.3467 8.53473L17.3436 8.53561L17.3424 8.53583C16.9274 8.66159 16.5391 8.74314 16.2382 8.72714C15.5715 8.69264 15.0523 8.41263 14.5951 8.16608L14.5915 8.16412C14.2341 7.97049 13.9224 7.80322 13.6288 7.80322C13.6132 7.80322 13.5969 7.80322 13.5809 7.80393C12.7027 7.86087 12.299 8.07542 11.9321 8.4027C11.8399 8.48433 11.7275 8.72077 11.3593 9.78187C11.1753 10.3127 11.1397 10.6056 11.1055 10.8881L11.1045 10.8966L11.1041 10.9001C11.0731 11.1594 11.0413 11.4268 10.9033 11.8247C10.8098 12.0921 10.7401 12.3239 10.6731 12.5469L10.6669 12.5678C10.4852 13.1771 10.3417 13.6571 9.91045 14.2278C9.86422 14.2896 9.80781 14.3777 9.74315 14.4788L9.72456 14.5078L9.71454 14.5236C9.61848 14.6749 9.50035 14.861 9.34602 15.0751C9.23332 15.2313 8.97452 15.816 8.98865 15.9941C9.00949 16.2733 9.09929 16.4482 9.20271 16.6497L9.20745 16.659L9.20895 16.6619C9.31353 16.8637 9.432 17.0924 9.45379 17.4076L9.45731 17.4588C9.49589 17.9611 9.42412 18.2131 8.46868 19.0668C7.85781 19.6133 7.4238 20.14 7.1311 20.5265C7.10526 20.5606 7.13886 20.6112 7.1815 20.6078C7.19137 20.6064 7.20126 20.6057 7.21045 20.6057C7.22879 20.6042 7.24713 20.6035 7.26526 20.6035C7.2836 20.6035 7.30197 20.6042 7.32006 20.605C7.33843 20.6057 7.35606 20.6071 7.37418 20.61C7.60524 20.6363 7.83048 20.7339 7.99309 20.9023C8.02135 20.9317 8.06529 20.9396 8.10307 20.9245C8.25859 20.8598 8.42962 20.8704 8.59292 20.8857C8.78719 20.9037 8.9834 20.9604 9.11724 21.0809C9.16821 21.1268 9.23815 21.1512 9.30532 21.1374C9.45741 21.1062 9.61588 21.1114 9.76316 21.1649C9.87239 21.2056 9.96609 21.2675 10.0428 21.3449C10.1152 21.4179 10.2376 21.4326 10.327 21.3816C10.3627 21.3612 10.4012 21.3438 10.4429 21.3296C10.6504 21.2593 10.8798 21.2992 11.0812 21.3717L11.1248 21.3872C11.2104 21.4174 11.2974 21.448 11.3738 21.499C11.5215 21.5973 11.6175 21.7365 11.6819 21.8935C11.7314 22.014 11.8961 22.0551 12.0019 21.979C12.1289 21.8876 12.2338 21.8758 12.3394 21.9227C12.3832 21.9425 12.4172 21.9675 12.4435 21.9976C12.5192 22.0849 12.6409 22.172 12.7533 22.1455C13.0666 22.0713 13.4459 22.1205 13.7243 22.2696C13.827 22.3236 13.9281 22.4059 14.0019 22.5304L14.0114 22.4752C14.0152 22.4501 14.033 22.4294 14.0572 22.422L14.1247 22.4011C14.2837 22.3504 15.0943 22.1169 15.4095 22.4489C15.4231 22.4625 15.447 22.4638 15.46 22.4496C15.503 22.4026 15.5378 22.3767 15.56 22.3638C15.7655 22.2394 16.1175 22.2316 16.3518 22.4321C16.399 22.4717 16.4753 22.4573 16.5109 22.407C16.5328 22.3761 16.5576 22.3488 16.5854 22.3254C16.6677 22.2543 16.772 22.2204 16.8873 22.2274L17.3326 22.2034C17.4446 22.1972 17.7926 22.1736 17.9023 22.1504C17.9106 22.1486 17.9192 22.1472 17.9279 22.1458C17.9673 22.1398 18.0131 22.1302 18.0614 22.12L18.0869 22.1148C18.3029 22.0676 18.5478 22.0147 18.749 22.1077C18.9424 22.1971 18.9179 22.4173 18.8947 22.6114L18.8939 22.6181C18.8849 22.6948 18.8756 22.7748 18.8763 22.8507C18.8777 22.8872 18.8785 22.9239 18.8791 22.9612L18.8794 22.9735C18.8821 23.1361 18.8846 23.2861 18.8524 23.402V23.4034L18.8727 23.4954C18.8941 23.5857 18.9906 23.6367 19.0696 23.5878C19.22 23.4949 19.3749 23.3777 19.4244 23.3082C19.4289 23.3019 19.4324 23.2948 19.4351 23.2875C19.4421 23.2688 19.4541 23.2301 19.4675 23.152C19.4951 22.9866 19.5259 22.6505 19.5287 21.9677C19.5287 21.9317 19.5287 21.9058 19.5294 21.8938C19.535 21.6405 19.5252 21.4372 19.5153 21.2576L19.5152 21.2554C19.4969 20.8864 19.4825 20.5957 19.6658 20.2998C19.8439 20.0127 20.0167 19.9032 20.1829 19.798L20.1851 19.7966C20.3792 19.675 20.5982 19.5368 20.9669 19.031C21.1478 18.7818 21.1702 18.6814 21.1879 18.6012C21.2279 18.4132 21.29 18.3 21.5692 18.0889L21.5704 18.088C21.7988 17.9155 22.4898 17.3932 23.4213 17.55C23.7273 17.6019 24.2233 17.7652 24.7129 17.958L24.7142 17.9582C24.7318 17.9634 24.7499 17.9695 24.7666 17.9779C24.7741 17.9818 24.782 17.9859 24.7901 17.989C25.2132 18.158 25.6252 18.3461 25.8978 18.4992C25.9754 18.5428 26.0741 18.5168 26.1307 18.448C26.2149 18.346 26.3063 18.2837 26.4043 18.225L26.4116 18.2205C26.4472 18.1986 26.4756 18.1813 26.5027 18.1581C26.5945 18.0802 26.5935 17.9166 26.4865 17.8615C25.1836 17.1923 23.9624 16.8181 23.5564 16.7027ZM14.2094 17.0046C13.9061 18.3325 11.8491 19.7919 10.9141 19.7919H10.8958C10.881 19.7912 10.8647 19.7897 10.8473 19.7869C10.8297 19.7841 10.8106 19.7798 10.7904 19.7742L10.7778 19.7705C10.7718 19.7686 10.7655 19.7667 10.7593 19.7651C10.5897 19.7116 10.3546 19.5813 10.1768 19.4062C10.0544 19.2861 9.95798 19.1444 9.92762 18.9918L9.91068 18.9114C9.86009 18.6856 9.79727 18.4035 9.99656 17.9419C10.0184 17.8927 10.0383 17.8462 10.057 17.8026L10.0711 17.7694C10.0761 17.7572 10.0813 17.7448 10.0865 17.7329L10.093 17.7175C10.1142 17.6675 10.133 17.6217 10.15 17.5803C10.1782 17.5099 10.2012 17.4502 10.2203 17.3993C10.2281 17.3796 10.2351 17.3605 10.2415 17.3431C10.2977 17.1852 10.3053 17.125 10.313 17.064L10.3132 17.0617L10.3163 17.0404C10.3225 16.996 10.3302 16.942 10.3471 16.8696C10.4055 16.6204 10.4358 16.4093 10.4626 16.2213C10.5104 15.8835 10.552 15.5916 10.7341 15.3235C10.7652 15.2779 10.7995 15.2363 10.8384 15.1998C10.8518 15.1871 10.8645 15.1751 10.8784 15.163C10.891 15.1524 10.9036 15.1428 10.916 15.1333L10.9205 15.1299C10.9647 15.0988 11.012 15.0716 11.0633 15.0483C11.0809 15.0405 11.0986 15.0328 11.116 15.0264C11.152 15.013 11.1899 15.0017 11.2294 14.9918C11.3969 14.9511 11.5945 14.9448 11.8218 14.9735C12.0703 14.9932 12.3004 15.0402 12.5043 15.0972C12.6746 15.1443 12.8266 15.1993 12.9553 15.2506C12.9688 15.2555 12.9815 15.2605 12.9941 15.2661C13.0189 15.276 13.0426 15.2859 13.0659 15.2965C13.0958 15.3091 13.1236 15.3211 13.1498 15.3325L13.1638 15.3385C13.1923 15.3517 13.2191 15.3636 13.2439 15.3748L13.273 15.3877L13.3033 15.4019C13.4468 15.4672 13.5701 15.539 13.6756 15.6144C13.7275 15.6524 13.7762 15.691 13.8198 15.7303C13.8346 15.743 13.8487 15.7565 13.8619 15.7705C13.876 15.7839 13.8894 15.7973 13.9019 15.8108C14.2971 16.227 14.2777 16.7083 14.2094 17.0046ZM15.1627 11.9718L15.1228 12.2125C15.0305 12.755 14.8188 13.4987 14.0377 13.6902C13.2862 13.874 13.1081 13.9133 12.5733 13.9374C12.5612 13.9387 12.5485 13.9387 12.5359 13.9387C12.1453 13.9387 11.3938 13.6923 11.2607 13.0802C11.1758 12.6876 11.3482 12.4026 11.6326 11.9322L11.6357 11.9269L11.6491 11.9049C11.6931 11.8332 11.7401 11.7563 11.7898 11.6714C12.1679 11.0345 12.3172 10.5732 12.4369 10.2034L12.4373 10.2021C12.554 9.84045 12.6511 9.54143 12.901 9.29367C12.9587 9.23604 13.0241 9.18167 13.1001 9.12969C13.1485 9.09652 13.1993 9.06711 13.2528 9.03959C13.3238 9.00429 13.3984 8.97346 13.4765 8.94878C13.6504 8.89324 13.8381 8.865 14.0261 8.865C14.3905 8.865 14.7545 8.96994 15.014 9.17815C15.1307 9.2718 15.2968 9.45885 15.3933 10.0106C15.4429 10.2948 15.3584 10.8171 15.1627 11.9718ZM20.7352 13.5157L20.729 13.5263C20.464 13.9812 20.3174 14.2329 20.087 14.422C19.6261 14.8006 19.0885 14.8963 18.6459 14.8963C18.3279 14.8963 18.0579 14.8471 17.8988 14.8181L17.8962 14.8177C17.4383 14.7339 16.5894 14.5784 16.3064 13.9077C16.2509 13.7747 16.2501 13.6902 16.2501 13.5832C16.2501 13.4776 16.2501 13.2997 16.201 12.8767L16.1981 12.8485C16.1755 12.6569 16.1504 12.4402 16.2052 12.1623L16.2115 12.1293C16.3721 11.3131 16.4156 11.1883 16.4516 11.118C16.5346 10.9575 16.7315 10.8942 16.8919 10.9766C17.0475 11.0575 17.1122 11.246 17.0391 11.4043C17.0228 11.4507 16.9772 11.6246 16.8531 12.2558L16.8468 12.289C16.8115 12.4671 16.827 12.6021 16.8475 12.7732L16.8503 12.8021C16.9037 13.2616 16.9037 13.4698 16.9037 13.5825C16.9037 13.6023 16.9037 13.6242 16.9044 13.6372C16.9046 13.6416 16.9066 13.6473 16.9081 13.6519L16.9087 13.6535C16.9563 13.7665 17.0573 13.8549 17.1827 13.925C17.2906 13.9853 17.4067 13.8795 17.3836 13.7581C17.2484 13.0504 17.2624 12.2382 17.5308 11.7318C17.6207 11.5596 17.7872 11.2781 17.9454 11.0151L17.9467 11.0129L17.9481 11.0108C17.9641 10.9843 17.9801 10.9581 17.9959 10.9317L18.0352 10.8662C18.1048 10.7507 18.1703 10.6446 18.2225 10.5602C18.2296 10.5482 18.2365 10.5362 18.2436 10.5249C18.2486 10.5164 18.2535 10.5086 18.2585 10.5016L18.2729 10.4778C18.2785 10.4685 18.2838 10.4597 18.2888 10.4517L18.2936 10.4439C18.2962 10.4398 18.2986 10.4359 18.3008 10.4319L18.3041 10.4268L18.3057 10.4242C18.3107 10.4157 18.3156 10.4079 18.3199 10.4016L18.325 10.3936C18.3309 10.3842 18.3354 10.377 18.3382 10.3719L18.339 10.3704L18.3421 10.3655L18.3434 10.3635C18.3823 10.3068 18.4209 10.2522 18.4588 10.1998C18.5444 10.0816 18.4444 9.9306 18.3115 9.99057C18.0832 10.0936 17.9294 10.2108 17.8957 10.2376C17.7542 10.3503 17.5486 10.327 17.4369 10.1856C17.3248 10.0442 17.3481 9.8381 17.4895 9.7254C17.6578 9.59318 18.5493 8.94287 19.6169 9.24826C20.3847 9.4667 20.7879 10.0528 20.9405 10.2746L20.9413 10.2757L20.9441 10.2797C21.0692 10.4632 21.4388 11.0055 21.4269 11.7605C21.4179 12.3405 21.1758 12.7579 20.7352 13.5157Z" fill="white"/>
<path d="M13.3953 24.2227C13.1687 24.6856 12.8867 25.1126 12.7108 25.3245C12.5653 24.931 12.3124 24.0293 12.3792 23.304C12.381 23.2829 12.3833 23.2622 12.3865 23.242C12.4133 23.018 12.4728 22.8125 12.5786 22.6478C12.6485 22.5395 12.8419 22.4734 13.0617 22.4734C13.2237 22.4734 13.4002 22.5089 13.552 22.5904C13.6334 22.6338 13.7454 22.7219 13.7569 22.9778C13.7736 23.3234 13.6089 23.7881 13.3953 24.2227Z" fill="white"/>
<path d="M25.8289 19.091C25.839 19.0708 25.828 19.0495 25.8103 19.0353C25.7215 18.9639 25.3144 18.7601 24.8332 18.5549C24.7588 18.5232 24.6721 18.5438 24.6248 18.6095C24.4183 18.897 24.1369 19.4191 23.9328 19.7977L23.9023 19.8542C23.7926 20.0575 23.6896 20.2486 23.5994 20.404C23.3314 20.8635 23.3092 21.2553 23.2898 21.6004C23.2672 22.0084 23.2438 22.4307 22.7841 22.7371C22.4768 22.9421 22.1996 22.9898 20.7796 23.2066C20.601 23.2342 20.5372 23.2618 20.4577 23.2966C20.363 23.338 20.2591 23.3829 20.027 23.4282C19.9599 23.4412 19.9068 23.4898 19.873 23.5492L19.8707 23.5533C19.7608 23.7433 19.3921 24.0198 19.0797 24.1561C19.0051 24.1886 18.9529 24.2599 18.9482 24.3411C18.9353 24.5617 18.8882 24.7788 18.7746 24.9269C18.6778 25.0518 18.5437 25.1215 18.3848 25.129C18.3689 25.1296 18.3529 25.1296 18.3376 25.1296C18.0373 25.1296 17.8646 24.9981 17.7709 24.8843C17.7632 24.8752 17.7466 24.8784 17.7436 24.8899C17.6564 25.2349 17.4725 25.5408 17.1032 25.6151C17.0505 25.6261 17.0008 25.6309 16.9549 25.6309C16.767 25.6309 16.6366 25.5514 16.5552 25.4763C16.5215 25.4453 16.4611 25.4584 16.4485 25.5024C16.4056 25.6518 16.3468 25.7899 16.2663 25.9023C16.1432 26.0742 15.9786 26.1751 15.7883 26.1955C15.7614 26.1984 15.7355 26.1996 15.7099 26.1996C15.5501 26.1996 15.4069 26.1453 15.2929 26.04C15.1917 25.9468 14.9554 25.9518 14.8759 26.0637C14.8627 26.0823 14.849 26.1004 14.8346 26.1183C14.6132 26.3931 14.285 26.5322 13.8597 26.5322H13.831C13.4606 26.5261 13.2739 26.353 13.1821 26.2077C13.1419 26.1441 13.1123 26.0737 13.0914 25.9988C13.0505 25.8517 12.8128 25.8019 12.6598 25.8019C12.6494 25.8019 12.64 25.8006 12.6313 25.7994L12.6205 25.798C12.5146 25.781 12.4744 25.6935 12.4416 25.6225L12.4405 25.6199C12.4348 25.6068 12.4129 25.6124 12.4147 25.6266C12.4296 25.7466 12.4469 25.8675 12.4661 25.9895C12.4772 26.0575 12.4772 26.2258 12.2514 26.3353C12.0934 26.4125 11.8252 26.4516 11.526 26.4516C10.9776 26.4516 10.3244 26.3194 10.0558 26.0434C10.0014 25.9998 9.93967 25.9495 9.88342 25.8844C9.78779 25.774 9.59821 25.7272 9.47236 25.8014C9.37033 25.8617 9.29564 25.8744 9.24477 25.8744C9.22148 25.8744 9.20312 25.8723 9.18901 25.8702C8.92813 25.834 8.75434 25.5879 8.61421 25.248C8.58311 25.1725 8.50011 25.1329 8.41895 25.1415C8.2658 25.1598 8.11097 25.1683 7.95734 25.1708C7.80818 25.1721 7.65573 25.1667 7.52162 25.0966C7.38773 25.0256 7.308 24.9026 7.25787 24.7642C7.25224 24.7505 7.23559 24.7449 7.22223 24.7515C7.22001 24.7525 7.21778 24.7538 7.21553 24.7545C7.20377 24.7596 7.19152 24.7626 7.1781 24.765C7.10164 24.778 7.02637 24.7773 6.95415 24.765C6.9179 24.7588 6.8819 24.7496 6.84756 24.7374C6.80638 24.7236 6.76734 24.7045 6.72992 24.6812C6.70895 24.6687 6.68175 24.6903 6.69149 24.7126L6.69555 24.7222C7.48445 26.5168 7.96134 27.6003 9.09066 28.2027C9.56867 28.458 10.288 28.5401 11.7195 28.7037L11.7265 28.7044C12.7732 28.8237 13.5658 28.823 14.8789 28.8205C16.1423 28.8189 16.5131 28.7642 16.7611 28.714C17.1742 28.6292 17.3912 28.5414 17.6189 28.4494L17.6306 28.4447C17.8831 28.3426 18.1455 28.2366 18.6444 28.1399C19.123 28.0479 19.6821 28.0276 20.7944 27.9875L20.8026 27.9871C21.4141 27.9644 21.7372 27.9639 21.9312 27.9639C22.1543 27.9632 22.1571 27.9632 22.2367 27.9387C23.0923 27.684 23.609 26.8859 24.1084 26.1135C24.5077 25.4958 24.8229 25.0077 24.9576 24.2709C25.0242 23.9069 25.0084 23.6814 24.9824 23.3094L24.9821 23.3051C24.9544 22.9171 24.918 22.3851 24.9527 21.4382C24.9821 20.6321 25.0381 20.3173 25.2133 19.9722C25.3349 19.7317 25.4654 19.5764 25.5799 19.44L25.5843 19.4348L25.5851 19.4339C25.6805 19.3218 25.7615 19.2267 25.8289 19.091Z" fill="white"/>
<path d="M12.0199 23.2594C11.9637 23.7504 11.9294 24.4064 12.0089 25.261C12.0314 25.5019 12.0627 25.7525 12.1018 26.0057C12.0345 26.0424 11.8336 26.0941 11.4762 26.0883C10.9626 26.0779 10.4627 25.9489 10.3125 25.7866L10.2892 25.7654C10.1643 25.6651 10.0824 25.5989 10.0707 25.4197C10.0669 25.3592 10.0928 25.2992 10.1483 25.2144C10.1784 25.1676 10.2179 25.1138 10.2668 25.0474L10.2695 25.0437C10.3558 24.928 10.4629 24.7834 10.5725 24.5975C10.8939 24.0544 11.0158 23.8867 11.1706 23.6749C11.1828 23.6577 11.1958 23.6405 11.2092 23.623C11.3005 23.498 11.4075 23.3486 11.5685 23.1032C11.6884 22.9208 11.7882 22.7781 11.8703 22.666C12.0075 22.4795 12.0973 22.3783 12.1549 22.3232C12.1465 22.4077 12.1275 22.5265 12.1092 22.6362L12.1041 22.6669C12.0777 22.8295 12.0458 23.0259 12.0199 23.2594Z" fill="white"/>
<path d="M11.3834 22.5469C11.3669 22.3787 11.3375 22.2103 11.2763 22.0517C11.2736 22.0466 11.2654 22.0288 11.2587 22.0143L11.2499 21.9954C11.2432 21.983 11.2358 21.9711 11.2284 21.9592C11.2237 21.9515 11.219 21.9439 11.2144 21.9361L11.2132 21.935L11.2121 21.9331L11.2035 21.9236C11.1999 21.9196 11.1963 21.9155 11.1925 21.9117C11.1826 21.9018 11.1718 21.8921 11.1612 21.8835C11.1594 21.8811 11.1558 21.8785 11.1558 21.8785C11.1509 21.8743 11.1436 21.8686 11.1356 21.8639L11.1178 21.8542C11.1111 21.8504 11.1045 21.8467 11.0977 21.8432C11.0939 21.8408 11.0848 21.8371 11.0763 21.8341L11.0732 21.8325L11.0702 21.8315C11.0683 21.8303 11.066 21.8291 11.066 21.8291L11.0642 21.8285L11.0617 21.8279L11.0605 21.8272L11.0569 21.8257L11.0543 21.8248L11.0526 21.8242L11.024 21.8136C10.9354 21.7808 10.8453 21.7474 10.7514 21.7336L10.7501 21.7333L10.7489 21.7331L10.7476 21.7328H10.7453C10.7365 21.7328 10.7206 21.7315 10.7129 21.7308L10.7086 21.7305C10.694 21.7298 10.6799 21.7298 10.6658 21.7305C10.6589 21.7305 10.6523 21.7305 10.6462 21.7313H10.6408L10.6371 21.7316L10.6324 21.732L10.6286 21.7331H10.6274C10.6178 21.736 10.608 21.7387 10.5981 21.7414C10.5841 21.7452 10.57 21.749 10.5563 21.7533L10.5497 21.7567C10.5417 21.7605 10.5335 21.7646 10.5258 21.7694L10.5161 21.7753C10.5108 21.7786 10.5054 21.782 10.5001 21.7846L10.4971 21.7865L10.4952 21.7884C10.4898 21.7938 10.4842 21.7991 10.4787 21.8043C10.473 21.8098 10.4672 21.8152 10.4615 21.8209C10.4578 21.8246 10.4474 21.8374 10.4401 21.8466L10.4371 21.8501L10.4359 21.8512L10.435 21.8523L10.434 21.8531L10.4328 21.8543L10.4284 21.8617L10.4255 21.8665C10.3863 21.9277 10.3465 21.9885 10.3055 22.0489C10.2112 22.1933 10.1145 22.3371 10.0166 22.4798C9.92723 22.609 9.83784 22.7383 9.74914 22.8674C9.69949 22.9396 9.65054 23.0112 9.60161 23.0834C9.59353 23.095 9.58589 23.1067 9.57824 23.1184L9.57715 23.1201L9.65376 23.1348C9.68643 23.1411 9.7192 23.1475 9.7522 23.1537C9.88371 23.1777 10.0148 23.2007 10.1482 23.2191C10.4229 23.2565 10.7022 23.2737 10.9806 23.2639C10.994 23.2631 11.0074 23.2639 11.0198 23.2662C11.0867 23.1706 11.1655 23.0567 11.2659 22.9043C11.3217 22.8191 11.3748 22.7403 11.425 22.6674C11.4024 22.6326 11.3883 22.5909 11.3834 22.5469Z" fill="white"/>
<path d="M9.77352 24.9648C10.1434 24.4425 10.3803 23.8941 10.4041 23.6824C10.3625 23.6789 10.3212 23.6745 10.2797 23.6701L10.2521 23.6671H10.2497C9.47964 23.664 8.93121 23.6175 8.61903 23.4443C8.60489 23.6793 8.61949 24.0534 8.69971 24.3325L8.70148 24.3386C8.73665 24.4616 8.77837 24.6075 8.82464 24.7537C8.94158 25.1202 9.08911 25.49 9.23849 25.5106C9.27591 25.507 9.46389 25.4012 9.77352 24.9648Z" fill="white"/>
<path d="M9.85623 21.9388C9.8541 21.9416 9.8522 21.9457 9.85032 21.9486L9.84586 21.9552C9.72384 22.1349 9.6008 22.3136 9.47768 22.4925L9.44685 22.5373C9.37767 22.6371 9.30922 22.7369 9.24121 22.8373C9.22404 22.8624 9.2042 22.8885 9.18353 22.9159C9.15919 22.9479 9.13371 22.9816 9.11017 23.0165L9.08793 23.0114C8.98574 22.9875 8.8838 22.9637 8.78267 22.9352C8.69397 22.9096 8.60644 22.882 8.52058 22.8477C8.50339 22.8415 8.48693 22.8347 8.47094 22.827C8.45681 22.7983 8.43658 22.7724 8.41211 22.7528L8.41286 22.751L8.41329 22.7498L8.50762 22.5582C8.56691 22.4413 8.62644 22.3251 8.69255 22.2124C8.81019 22.0091 8.95206 21.8023 9.15112 21.6706C9.16099 21.6633 9.17181 21.6564 9.18239 21.6499C9.25956 21.6014 9.33675 21.5673 9.43155 21.5555C9.44262 21.5544 9.50921 21.5548 9.54048 21.5574C9.54357 21.5574 9.54636 21.5576 9.54874 21.5579L9.55343 21.5581C9.55581 21.5589 9.56096 21.56 9.56754 21.5624C9.57768 21.5655 9.5878 21.5682 9.59794 21.571C9.61109 21.5745 9.62425 21.5781 9.63741 21.5826C9.64542 21.5863 9.65271 21.5899 9.6607 21.5941L9.67375 21.6019C9.68975 21.6113 9.70572 21.6206 9.7207 21.6327C9.69011 21.6094 9.76304 21.6847 9.76304 21.6793C9.82187 21.7607 9.83975 21.8287 9.85623 21.9388Z" fill="white"/>
<path d="M8.23728 22.1342C8.38598 21.8551 8.56406 21.5869 8.80899 21.3856C8.79488 21.3759 8.77582 21.3642 8.75817 21.3566C8.68119 21.3257 8.59471 21.3208 8.51221 21.3159L8.48455 21.3143L8.46193 21.3129C8.38322 21.3079 8.30227 21.3029 8.23421 21.343C8.16457 21.3834 8.11122 21.4495 8.06127 21.5112L8.05424 21.5199C7.9159 21.6889 7.78859 21.8689 7.67097 22.0519L7.64781 22.0879C7.57164 22.2061 7.49338 22.3277 7.42676 22.454C7.46041 22.4716 7.49403 22.4881 7.52768 22.504C7.6011 22.5382 7.67755 22.5664 7.75473 22.5909C7.82694 22.6139 7.90108 22.6353 7.97518 22.6514C7.98434 22.6355 7.99235 22.6202 8.00036 22.6043C8.02048 22.5639 8.0404 22.5234 8.0603 22.483C8.11787 22.3661 8.1754 22.2492 8.23728 22.1342Z" fill="white"/>
<path d="M8.42018 24.6719C8.40793 24.6821 8.39758 24.6934 8.38841 24.7062C8.38011 24.7086 8.37157 24.7105 8.36613 24.7117C8.30733 24.7178 8.24701 24.7223 8.18772 24.726C8.07384 24.7333 7.95807 24.7383 7.84302 24.7341C7.77882 24.7316 7.7207 24.7219 7.69435 24.6809C7.6587 24.6267 7.64405 24.5388 7.63118 24.4616C7.62876 24.4471 7.62641 24.433 7.62399 24.4195C7.54871 24.0014 7.53884 23.5657 7.59222 23.1426C7.8108 23.221 8.0355 23.2816 8.26606 23.3195C8.21642 23.7009 8.30088 24.2608 8.35053 24.4324C8.37357 24.5122 8.39686 24.5928 8.42018 24.6719Z" fill="white"/>
<path d="M7.18945 21.9991C7.34756 21.7372 7.52378 21.4843 7.71718 21.247C7.62424 21.1387 7.51225 21.0738 7.36895 21.046C7.32074 21.0376 7.24168 21.0296 7.18169 21.0467C7.1279 21.0628 7.09118 21.1113 7.05637 21.1573C7.0487 21.1674 7.04112 21.1774 7.03347 21.187C6.9196 21.3302 6.81913 21.4858 6.72926 21.6449C6.68197 21.7298 6.63678 21.8168 6.59633 21.9055C6.59097 21.9167 6.5843 21.9296 6.57711 21.9435C6.56032 21.9759 6.54068 22.0137 6.52832 22.0488C6.53298 22.0513 6.53716 22.0546 6.54152 22.0581L6.54434 22.0603L6.57998 22.0887C6.59534 22.1008 6.60985 22.1123 6.61726 22.1184C6.67043 22.1589 6.72503 22.1975 6.78125 22.2324C6.85465 22.2777 6.92383 22.3083 7.00029 22.3297C7.0413 22.2419 7.09366 22.1563 7.14471 22.0728C7.15984 22.0481 7.17487 22.0236 7.18945 21.9991Z" fill="white"/>
<path d="M6.22486 22.2819C6.22802 22.2696 6.24388 22.2679 6.25133 22.2783C6.30192 22.3488 6.3714 22.4102 6.44583 22.4683L6.45333 22.4739C6.48415 22.4974 6.51488 22.5207 6.54605 22.5429C6.55128 22.5466 6.55376 22.553 6.55226 22.5593C6.47436 22.8825 6.42056 23.225 6.41877 23.5631C6.41868 23.5818 6.39048 23.5858 6.38613 23.5676C6.28966 23.164 6.16432 22.5189 6.22486 22.2819Z" fill="white"/>
<path d="M7.12858 23.8689C7.11586 23.5776 7.1347 23.288 7.17398 22.9991C7.12678 22.9773 7.07895 22.9559 7.03143 22.9356C7.00929 22.926 6.98728 22.9166 6.96553 22.9071C6.89637 22.8773 6.85471 22.8593 6.80695 22.8398C6.7512 23.133 6.72555 23.4318 6.73709 23.7311C6.74321 23.8835 6.76038 24.0471 6.83801 24.1816C6.86742 24.2317 6.91143 24.2809 6.95307 24.3077C6.95658 24.3099 6.95975 24.3119 6.96266 24.3138C6.98629 24.329 6.99304 24.3333 7.02905 24.3421C7.02905 24.3421 7.03419 24.3428 7.03795 24.3432C7.04039 24.3434 7.04505 24.344 7.04505 24.344H7.04742C7.04742 24.344 7.05184 24.3439 7.05449 24.3439C7.0629 24.3436 7.0725 24.3433 7.06694 24.3451C7.10365 24.3397 7.13962 24.3409 7.17398 24.3489L7.17327 24.3451C7.15187 24.1873 7.1347 24.0286 7.12858 23.8689Z" fill="white"/>
</g>
<defs>
<radialGradient id="paint0_radial_380_1351" cx="0" cy="0" r="1" gradientUnits="userSpaceOnUse" gradientTransform="translate(18 19.8863) rotate(90) scale(20.2225)">
<stop offset="0.166667" stop-color="#073183"/>
<stop offset="1" stop-color="#0054F9"/>
</radialGradient>
<clipPath id="clip0_380_1351">
<rect width="36" height="36" fill="white"/>
</clipPath>
</defs>
</svg>
