<svg width="22" height="22" viewBox="0 0 22 22" fill="none" xmlns="http://www.w3.org/2000/svg">
<circle cx="11" cy="11" r="11" fill="#8247E5"/>
<g clip-path="url(#clip0_105_7146)">
<path d="M13.5075 8.79478C13.307 8.67538 13.0492 8.67538 12.82 8.79478L11.2158 9.77986L10.1273 10.4067L8.55176 11.3918C8.35124 11.5112 8.09342 11.5112 7.86426 11.3918L6.63249 10.6157C6.43197 10.4963 6.28874 10.2575 6.28874 9.98881V8.49627C6.28874 8.25747 6.40332 8.01866 6.63249 7.86941L7.86426 7.12314C8.06478 7.00374 8.32259 7.00374 8.55176 7.12314L9.78353 7.89926C9.98405 8.01866 10.1273 8.25747 10.1273 8.52612V9.5112L11.2158 8.85448V7.83956C11.2158 7.60075 11.1012 7.36194 10.8721 7.21269L8.5804 5.80971C8.37988 5.6903 8.12207 5.6903 7.8929 5.80971L5.54395 7.24254C5.31478 7.36194 5.2002 7.60075 5.2002 7.83956V10.6455C5.2002 10.8843 5.31478 11.1231 5.54395 11.2724L7.86426 12.6754C8.06478 12.7948 8.32259 12.7948 8.55176 12.6754L10.1273 11.7202L11.2158 11.0634L12.7913 10.1082C12.9919 9.98881 13.2497 9.98881 13.4788 10.1082L14.7106 10.8545C14.9111 10.9739 15.0544 11.2127 15.0544 11.4813V12.9739C15.0544 13.2127 14.9398 13.4515 14.7106 13.6008L13.5075 14.347C13.307 14.4664 13.0492 14.4664 12.82 14.347L11.5882 13.6008C11.3877 13.4813 11.2445 13.2425 11.2445 12.9739V12.0187L10.1559 12.6754V13.6605C10.1559 13.8993 10.2705 14.1381 10.4997 14.2873L12.82 15.6903C13.0205 15.8097 13.2783 15.8097 13.5075 15.6903L15.8278 14.2873C16.0283 14.1679 16.1715 13.9291 16.1715 13.6605V10.8246C16.1715 10.5858 16.057 10.347 15.8278 10.1978L13.5075 8.79478Z" fill="white"/>
</g>
<defs>
<clipPath id="clip0_105_7146">
<rect width="11" height="10" fill="white" transform="translate(5.2002 5.75)"/>
</clipPath>
</defs>
</svg>
