<svg width="409" height="205" viewBox="0 0 409 205" fill="none" xmlns="http://www.w3.org/2000/svg">
<rect width="408.054" height="204.123" fill="white"/>
<path d="M347.043 134.707C347.043 126.207 346.998 117.706 347.066 109.206C347.1 105.126 346.624 101.283 343.53 98.2346C342.782 97.4979 341.354 96.8179 342.192 95.5712C342.555 95.0271 343.927 94.9818 344.833 95.0045C357.289 95.3445 369.7 96.3532 382.031 98.1666C382.858 98.2913 384.185 98.042 384.128 99.3794C384.105 99.8894 383.221 100.603 382.598 100.807C376.307 102.87 375.559 107.71 375.616 113.456C375.797 131.398 375.65 149.339 375.707 167.281C375.718 173.004 376.84 173.809 382.02 171.554C391.223 167.553 396.482 159.8 400.902 151.243C401.763 149.566 401.899 146.188 404.268 146.834C406.252 147.378 405.164 150.518 405.186 152.479C405.3 160.22 405.13 167.972 405.266 175.713C405.334 179.533 404.279 181.403 400.018 180.485C369.677 173.99 338.906 174.058 308.111 174.784C305.051 174.852 301.22 175.622 305.278 170.556C308.032 167.122 307.091 163.042 305.867 159.166C305.527 158.089 305.187 157.001 304.847 155.924C302.701 149.237 298.149 146.079 291.19 146.449C283.472 146.868 282.576 147.741 281.964 155.471C281.239 164.663 283.585 168.629 292.505 173.265C293.298 173.673 294.624 173.832 294.386 174.976C294.159 176.042 292.867 175.781 291.983 175.86C270.358 177.708 248.824 180.303 227.323 183.295C226.428 183.42 225.023 183.613 224.671 183.148C223.697 181.879 225.238 181.278 225.941 180.587C229.137 177.447 230.157 173.514 230.157 169.23C230.18 151.855 230.202 134.48 230.134 117.106C230.123 113.071 229.522 109.161 225.635 106.701C225.068 106.35 224.32 105.579 224.377 105.103C224.535 103.924 225.771 104.106 226.643 103.992C237.864 102.508 249.085 101.011 260.316 99.5947C261.518 99.4474 263.229 98.8013 263.853 100.297C264.329 101.453 262.753 102.077 262.005 102.859C258.911 106.123 258.265 110.226 258.254 114.419C258.174 131.035 258.208 147.662 258.231 164.277C258.231 167.315 258.537 170.364 259.92 173.095C261.291 175.804 263.207 176.336 264.816 173.322C266.414 170.341 267.944 167.269 269.032 164.073C275.005 146.562 280.706 128.949 286.792 111.473C288.413 106.826 287.665 103.448 283.8 100.569C282.962 99.9461 281.465 99.436 282.055 98.0533C282.554 96.8859 284.004 97.1919 285.092 97.1126C293.185 96.4779 301.277 95.9679 309.358 95.1858C313.404 94.7891 315.025 96.7726 316.181 100.286C322.777 120.381 329.51 140.431 336.276 160.458C337.24 163.303 338.452 166.091 339.88 168.731C341.818 172.302 343.847 171.52 345.604 168.448C346.873 166.238 347.043 163.801 347.043 161.319C347.043 152.445 347.043 143.57 347.043 134.684V134.707ZM289.819 139.864C291.179 139.807 291.53 139.773 293.479 139.411C298.455 138.481 299.056 137.575 297.469 133.29C295.134 126.943 293.321 120.404 291.235 113.966C291.02 113.309 290.465 112.776 290.057 112.175C289.875 112.697 289.626 113.195 289.524 113.728C288.118 121.299 286.679 128.881 285.376 136.464C284.9 139.195 286.09 140.011 289.819 139.853V139.864Z" fill="#F97316"/>
<path d="M344.576 10.0035C354.561 10.2188 365.476 11.0235 376.334 12.3383C395.193 14.6277 406.062 29.6678 401.597 47.088C398.616 58.7052 388.461 62.1734 379.008 54.7723C378.124 54.081 377.331 53.2536 376.47 52.5282C375.744 51.9162 374.894 51.2362 374.01 52.0749C373.16 52.8796 373.738 53.8543 374.169 54.659C378.068 61.958 384.075 66.4122 392.269 67.693C394.491 68.0443 396.791 68.0103 399.047 67.897C406.176 67.523 406.176 67.4776 406.017 74.9127C405.994 75.8534 405.983 76.8054 405.926 77.7461C405.348 86.7112 401.846 92.5482 396.145 94.0896C388.484 96.175 378.498 92.5482 374.022 86.0425C370.825 81.3957 369.431 76.1254 369.182 70.5831C368.989 66.4463 369.25 62.2754 369.091 58.1385C369.023 56.5291 370.417 53.877 367.391 53.639C364.671 53.4236 364.036 55.5884 364.036 57.8778C364.048 65.2335 364.014 72.6006 364.15 79.9562C364.206 82.8804 365.453 85.4192 367.459 87.5726C368.185 88.3547 369.681 89.114 368.887 90.2361C368.445 90.8594 366.791 90.9275 365.736 90.7801C355.026 89.352 344.259 89.8281 333.514 89.5561C332.438 89.5334 330.907 89.4654 330.409 88.808C329.423 87.5046 331.111 86.9606 331.871 86.3032C334.534 84.0024 335.316 80.9876 335.316 77.6668C335.316 58.9886 335.316 40.299 335.316 21.6207C335.316 18.0279 334.16 15.0017 331.338 12.6329C329.457 11.0575 330.012 10.0828 332.29 10.0375C336.064 9.96947 339.839 10.0148 344.565 10.0148L344.576 10.0035ZM364.014 32.5352H363.991C363.991 37.0575 363.946 41.5797 364.025 46.1019C364.036 47.1673 364.07 48.7314 364.716 49.1961C366.076 50.1481 367.085 48.6294 368.026 47.836C374.747 42.1464 376.232 24.8055 370.621 17.9485C370.27 17.5178 369.896 17.0758 369.465 16.7131C368.287 15.7158 367.006 14.7864 365.396 15.5231C363.946 16.1918 364.048 17.6765 364.036 18.9799C364.002 23.5021 364.025 28.0244 364.025 32.5466L364.014 32.5352Z" fill="#F97316"/>
<path d="M150.901 154.428C151.014 163.303 149.201 171.678 144.871 179.453C134.07 198.857 105.86 204.32 88.9496 190.277C70.9627 175.339 72.0847 136.464 91.3977 123.373C104.488 114.499 119.2 113.445 133.446 120.222C147.512 126.921 150.753 140.125 150.901 154.428ZM122.713 155.437C121.07 141.428 119.676 133.766 115.301 123.77C114.247 121.684 113.771 118.998 110.677 119.916C108.149 120.664 105.78 121.843 105.418 125.107C102.97 147.016 105.542 168.357 112.683 189.155C113.374 191.15 113.805 194.482 117.386 193.632C120.492 192.884 121.455 190.731 122.011 187.432C124.062 175.169 123.756 164.379 122.702 155.448L122.713 155.437Z" fill="#F97316"/>
<path d="M100.726 112.451C96.7595 112.451 92.804 112.496 88.8371 112.416C87.9644 112.405 86.7063 112.258 86.321 111.691C85.6523 110.705 86.8537 110.059 87.5224 109.504C90.5712 106.942 91.2059 103.497 91.2059 99.8019C91.2059 81.679 91.2059 63.5674 91.1946 45.4446C91.1946 41.7384 90.5372 38.2929 87.3637 35.8334C86.661 35.2894 85.4483 34.7114 86.1623 33.6913C86.559 33.1133 87.7944 32.8639 88.6444 32.8866C105.079 33.3286 121.445 31.4472 137.845 31.5152C148.204 31.5605 155.106 37.7262 157.452 47.802C158.847 53.809 158.654 59.7819 157.18 65.7435C153.282 81.5997 139.307 88.0826 124.845 80.3643C120.379 77.9841 119.439 78.7322 119.767 83.4471C120.039 87.3913 120.005 91.3808 119.779 95.3363C119.427 101.389 121.014 106.172 127.202 108.438C128.052 108.756 129.299 109.084 129.027 110.172C128.676 111.566 127.18 111.158 126.137 111.226C117.659 111.702 109.193 112.133 100.715 112.564C100.715 112.519 100.715 112.485 100.715 112.439L100.726 112.451ZM119.847 55.1237C119.847 60.0086 119.881 64.9048 119.835 69.7897C119.801 72.6346 120.13 75.128 123.677 75.5474C127.089 75.944 127.735 73.4733 128.302 71.0365C130.319 62.298 130.319 53.5256 128.574 44.7532C128.018 41.9537 126.964 39.3243 124.834 37.3068C123.87 36.4001 122.703 35.5274 121.309 35.9808C119.733 36.4908 119.869 38.0209 119.869 39.3242C119.847 44.5945 119.858 49.8534 119.847 55.1237Z" fill="#F97316"/>
<path d="M202.783 81.3503C202.783 83.2317 202.874 85.1245 202.76 87.0059C202.466 92.1968 203.837 96.3564 209.255 98.2151C210.139 98.5212 211.238 98.8045 211.283 99.8812C211.329 101.196 210.037 101.071 209.187 101.196C196.493 102.975 183.799 104.732 171.105 106.444C170.425 106.534 169.269 106.41 169.053 106.013C168.509 105.004 169.529 104.381 170.198 103.757C173.53 100.663 174.176 96.6737 174.165 92.3895C174.131 75.0373 174.142 57.6852 174.165 40.3216C174.165 36.2528 173.836 32.3992 170.039 29.7811C167.909 28.3077 168.77 27.333 170.867 27.061C187.312 24.8962 203.712 22.2101 220.214 20.816C231.186 19.8866 238.281 26.483 240.57 37.2728C241.851 43.3024 241.522 49.2867 239.935 55.1917C235.946 70.1071 222.334 76.9981 208.223 70.7645C203.18 68.5317 202.375 69.9938 202.749 74.5613C202.93 76.8054 202.783 79.0835 202.783 81.3503ZM202.806 45.6259C202.806 50.8962 202.874 56.1551 202.783 61.4253C202.738 64.2135 203.973 65.4715 206.704 65.8456C209.595 66.2536 210.377 64.3721 210.887 62.332C213.289 52.8909 213.561 43.3818 211.215 33.8953C210.739 31.9572 209.595 30.1098 208.473 28.4097C207.645 27.1517 206.274 26.2336 204.596 26.687C202.67 27.2083 202.828 28.9197 202.817 30.3931C202.772 35.4707 202.794 40.5483 202.794 45.6259H202.806Z" fill="#F97316"/>
<path d="M44.3168 195.196C32.0876 194.437 20.2096 192.453 10.7685 183.704C2.86878 176.382 3.18613 164.3 11.0859 158.418C13.9307 156.298 16.0048 155.55 16.6508 160.231C16.8548 161.67 17.5802 163.144 18.4075 164.368C26.6473 176.518 37.9245 184.69 51.7519 189.416C53.5426 190.028 55.6167 190.651 56.7841 188.486C57.8042 186.594 56.2174 185.29 55.0727 184.1C51.1398 179.997 46.5609 176.643 41.9934 173.276C34.241 167.575 26.1599 162.294 19.4616 155.255C14.69 150.246 11.0405 144.579 9.2611 137.847C5.35091 123.045 12.4913 112.685 27.7127 112.379C37.7205 112.175 47.6943 114 56.8294 118.556C63.0971 121.684 67.608 126.286 66.9733 134.072C66.5539 139.263 63.6298 142.584 58.6655 143.48C53.2706 144.454 48.975 141.961 46.3116 137.337C43.8521 133.064 43.5008 128.156 47.6376 124.96C52.0239 121.571 49.9044 120.766 46.5383 119.418C43.2061 118.08 39.9873 116.562 36.2131 116.89C31.1015 117.344 28.8574 120.415 30.3195 125.436C31.7929 130.525 35.0457 134.48 39.1032 137.677C44.2942 141.757 49.6778 145.599 55.016 149.487C59.1529 152.501 63.0631 155.788 66.1346 159.902C75.9044 173.004 70.0901 189.801 54.4266 194.006C51.1058 194.901 47.751 195.207 44.3055 195.162L44.3168 195.196Z" fill="#F97316"/>
<path d="M201.303 107.2C205.281 107.098 209.226 107.234 213.011 108.684C218.871 110.929 222.237 115.156 222.656 121.412C223.076 127.714 220.843 132.962 215.255 136.271C210.688 138.98 205.905 139.422 201.496 135.931C197.348 132.633 197.325 128.088 198.697 123.532C199.331 121.424 200.884 119.599 201.757 117.536C202.618 115.519 207.288 114.283 205.225 112.731C202.482 110.679 198.039 108.877 194.254 112.062C192.826 113.263 191.375 114.589 190.389 116.142C183.192 127.408 180.188 139.592 183.124 152.841C185.017 161.41 190.921 166.102 199.626 166.306C209.226 166.533 217.284 163.076 223.858 156.083C224.594 155.301 225.263 153.816 226.465 154.383C227.609 154.915 227.043 156.366 226.884 157.454C223.246 182.661 191.669 198.302 169.546 185.619C156.444 178.105 153.032 165.275 153.848 151.538C155.458 124.473 174.181 107.415 201.315 107.2H201.303Z" fill="#F97316"/>
<path d="M315.221 71.6372C315.221 75.978 315.131 80.3189 315.244 84.6598C315.335 88.196 313.827 89.7034 310.246 89.8847C291.783 90.7914 273.411 92.7069 255.05 94.7696C253.973 94.8943 252.545 95.6083 251.956 94.4636C251.298 93.2056 252.885 92.6162 253.61 91.8455C256.251 89.0574 257.078 85.6799 257.078 81.9737C257.067 63.8621 257.078 45.7506 257.078 27.639C257.078 24.1028 256.387 20.884 253.304 18.6399C252.568 18.1072 251.412 17.4612 252.024 16.4865C252.386 15.8971 253.644 15.7158 254.528 15.5911C272.844 13.0523 291.261 11.6809 309.69 10.4002C312.864 10.1848 314.111 11.7716 314.099 14.809C314.054 21.224 314.122 27.639 314.077 34.054C314.077 35.0514 314.564 36.6041 312.966 36.7401C312.445 36.7855 311.663 35.5387 311.254 34.7567C307.367 27.401 302.255 21.2354 294.412 17.8805C287.181 14.7864 285.787 15.7158 285.765 23.3661C285.742 28.8404 285.98 34.326 285.697 39.7776C285.447 44.6172 286.637 46.8499 292.078 45.6712C295.716 44.8892 299.592 45.1612 303.355 45.0592C307.129 44.9572 306.902 46.8386 305.35 49.2981C303.411 52.3809 300.204 52.1315 297.246 52.2449C284.688 52.7436 285.787 51.8595 285.753 64.3495C285.742 70.1978 285.674 76.046 285.799 81.8943C285.833 83.6398 284.79 86.0652 287.011 86.9606C288.847 87.6973 290.593 86.1899 292.168 85.1925C299.909 80.2623 304.817 72.9632 309.078 65.0748C310.846 61.8107 311.481 57.9685 314.201 55.2144C316.389 58.8299 314.813 62.7854 315.221 66.5596C315.403 68.237 315.255 69.9484 315.255 71.6485H315.233L315.221 71.6372Z" fill="#F97316"/>
<path d="M8.03792 56.8351C8.03792 50.9868 8.03792 45.1272 8.03792 39.2789C8.03792 33.8726 7.36922 28.7044 3.09635 24.7375C2.58632 24.2615 1.87229 23.3775 2.01963 22.9581C2.42765 21.7567 3.5837 22.3007 4.39974 22.5274C15.3369 25.4742 26.4215 27.7183 37.642 29.3277C40.8722 29.7924 41.0082 31.0505 38.8094 33.2379C37.132 34.904 36.3613 37.2161 36.35 39.4376C36.2366 53.1856 34.9899 66.9903 37.1093 80.6816C38.1294 87.2666 41.6316 92.2988 48.0579 94.7016C58.6551 98.6798 67.2235 92.4802 66.7815 80.2396C66.1581 63.2614 61.3299 47.5413 49.5766 34.598C48.7379 33.6686 46.8792 33.0453 47.4685 31.5832C48.1146 29.9738 49.7693 31.1072 50.982 31.1752C58.3264 31.6512 65.6594 32.1499 72.9924 32.6826C73.9105 32.7506 75.1459 32.7393 75.6332 33.2946C76.4039 34.1787 75.3499 34.938 74.6812 35.5614C70.703 39.2336 70.1136 44.0845 70.091 49.0714C70.0343 59.8272 70.1136 70.5944 70.0456 81.3503C69.887 106.546 50.268 118.253 27.6796 106.523C15.4503 100.165 9.01264 89.7601 8.18526 76.0914C7.79991 69.6991 8.11726 63.2614 8.11726 56.8464H8.03792V56.8351Z" fill="#F97316"/>
</svg>
