<svg width="91" height="61" viewBox="0 0 91 61" fill="none" xmlns="http://www.w3.org/2000/svg">
<path d="M85.4959 1.88372L85.636 4.37979L77.4419 11.2927L69.2488 16.8218L64.4103 19.1303L63.004 22.3741L49.1401 31.4607L34.8482 39.5449L27.2822 42.6776L22.5337 46.2153L18.8024 50.3779L9.34733 55.7183L6.35855 57.4285L9.18563 54.2651L3.36326 57.5967C7.05975 55.0522 14.9351 49.6354 16.8647 48.3252C18.7942 47.0149 20.4957 44.6158 21.1053 43.5799C23.8407 41.757 29.5999 37.8947 30.7532 37.0287C32.1947 35.9462 35.7251 33.9889 37.1666 32.9063C38.6082 31.8238 49.5777 24.4535 54.8168 19.6522C56.2303 18.0705 57.2115 16.8446 57.1554 15.8461C57.1105 15.0474 60.1194 13.0111 60.9141 12.2988C64.0477 11.622 70.9579 9.23083 73.5292 5.08013C75.1278 3.82185 78.5248 1.29409 79.3235 1.24924C80.1223 1.20438 83.3793 2.83722 84.4975 1.93979L85.4959 1.88372Z" fill="#F97316"/>
<path d="M13.0345 8.11837L12.8944 10.6144L18.5 13L24.5 17L28.9462 22.2246L32.4424 22.2246L43 30L55.0373 42.5L62.6033 45.6328L68 50.5L74.5541 53.4722L80 55L86.9979 60.5228L84.0091 56.5L87.5 56.5C83.8035 53.9554 78.4213 52.7297 76.4918 51.4195C74.5622 50.1092 72.8607 47.71 72.2512 46.6742C69.5157 44.8513 63.7565 40.989 62.6033 40.123C61.1617 39.0405 57.6314 37.0832 56.1898 36.0006C54.7482 34.9181 43.7787 27.5478 38.5397 22.7465C37.1261 21.1648 36.145 19.9389 36.2011 18.9404C36.2459 18.1417 33.237 16.1054 32.4424 15.3931C29.3087 14.7163 22.3986 12.3251 19.8273 8.17443C18.2286 6.91615 14.8317 4.38838 14.0329 4.34353C13.2342 4.29868 15.1511 9.07187 14.033 8.17443L13.0345 8.11837Z" fill="#F97316"/>
</svg>
