<svg width="38" height="25" viewBox="0 0 38 25" fill="none" xmlns="http://www.w3.org/2000/svg">
<path fill-rule="evenodd" clip-rule="evenodd" d="M26.1597 6.80279C27.7174 5.50326 29.4551 5.00883 31.1217 5.13383C32.8995 5.26716 34.5445 6.10046 35.7733 7.31084C37.0018 8.52129 37.8459 10.1403 37.9811 11.8876C38.1173 13.6509 37.527 15.4976 35.9704 17.1183C35.8282 17.2677 35.6827 17.4149 35.5341 17.5604C28.474 24.5149 19.096 24.5333 19.0001 24.5333H18.9996C18.9516 24.5333 9.54385 24.533 2.4656 17.5597L2.46407 17.5579C2.31794 17.4131 2.17404 17.2673 2.03229 17.1208L2.03116 17.1194C0.473904 15.5001 -0.117038 13.6538 0.0188674 11.8905C0.153534 10.1435 0.997036 8.52429 2.22532 7.31342C3.4535 6.10262 5.09845 5.26864 6.87652 5.13475C8.54299 5.00925 10.2811 5.50308 11.8395 6.80197C12.0071 4.7986 12.8801 3.2394 14.1474 2.16748C15.499 1.02421 17.2603 0.466675 18.9996 0.466675C20.739 0.466675 22.5003 1.02421 23.8518 2.16748C25.1192 3.23954 25.9923 4.79903 26.1597 6.80279ZM19.3228 23.8283L19.3225 23.8195H19.3231L19.3228 23.8283ZM18.6765 23.8283L18.6762 23.8195H18.6768L18.6765 23.8283ZM24.3038 14.1714C24.1105 14.1714 24.0436 14.4462 24.1668 14.5917C24.3848 14.8496 24.5161 15.1813 24.5161 15.5432C24.5161 16.3645 23.8405 17.0302 23.007 17.0302C22.1733 17.0302 21.4976 16.3645 21.4976 15.5432C21.4976 15.4993 21.4394 15.4775 21.4131 15.5131C21.175 15.8352 21.0143 16.1968 20.9483 16.5765C20.9111 16.7902 20.7347 16.9675 20.5131 16.9675H20.3906C20.1014 16.9675 19.8627 16.7363 19.9054 16.4564C20.1981 14.5378 22.1174 13.1463 24.3038 13.1463C26.4899 13.1463 28.4093 14.5378 28.702 16.4564C28.7444 16.7363 28.5059 16.9675 28.2167 16.9675C27.9272 16.9675 27.6982 16.7352 27.6352 16.4589C27.3493 15.2013 26.0228 14.1714 24.3038 14.1714ZM10.9007 15.5432C10.9007 15.4853 10.8245 15.4542 10.7886 15.5003C10.5341 15.8274 10.3607 16.1979 10.2873 16.5884C10.244 16.8189 10.0536 17.0107 9.81389 17.0107H9.72406C9.43477 17.0107 9.19612 16.7796 9.23877 16.4997C9.53132 14.58 11.4509 13.1895 13.6371 13.1895C15.8232 13.1895 17.7428 14.58 18.0353 16.4997C18.078 16.7796 17.8393 17.0107 17.55 17.0107C17.2607 17.0107 17.0317 16.7786 16.9688 16.5022C16.6828 15.2438 15.3564 14.2146 13.6371 14.2146C13.4808 14.2146 13.4236 14.4308 13.5282 14.5444C13.7713 14.8083 13.9194 15.1588 13.9194 15.5432C13.9194 16.3645 13.2436 17.0302 12.41 17.0302C11.5765 17.0302 10.9007 16.3645 10.9007 15.5432ZM20.6787 19.1293C20.8832 18.929 21.1991 18.8317 21.453 18.9672C21.7069 19.1031 21.8032 19.4181 21.6202 19.6375C21.0244 20.3514 20.0596 20.8041 18.9956 20.8041C17.9321 20.8041 16.9653 20.3563 16.3686 19.6368C16.1863 19.417 16.2838 19.102 16.5382 18.9672C16.7925 18.8324 17.108 18.9311 17.3122 19.1314C17.7055 19.5179 18.3023 19.7791 18.9956 19.7791C19.6871 19.7791 20.2845 19.5151 20.6787 19.1293Z" fill="white"/>
</svg>
