<svg width="22" height="22" viewBox="0 0 22 22" fill="none" xmlns="http://www.w3.org/2000/svg">
<circle cx="11" cy="11" r="11" fill="#F97316"/>
<path d="M14.9413 12.177C14.9413 13.618 14.5618 14.729 13.8028 15.51C13.0438 16.28 11.9603 16.665 10.5523 16.665C9.85934 16.665 9.23784 16.5605 8.68784 16.3515C8.13784 16.1425 7.66484 15.8455 7.26884 15.4605C6.88384 15.0645 6.58684 14.5915 6.37784 14.0415C6.16884 13.4915 6.06434 12.87 6.06434 12.177V6.8145C6.06434 5.8575 5.67934 5.269 4.90934 5.049H10.9648C10.6348 5.17 10.3928 5.3735 10.2388 5.6595C10.0958 5.9345 10.0243 6.3195 10.0243 6.8145V11.418C10.0243 12.408 10.2388 13.167 10.6678 13.695C11.0968 14.223 11.7128 14.487 12.5158 14.487C12.8348 14.487 13.1208 14.4265 13.3738 14.3055C13.6268 14.1735 13.8413 13.9975 14.0173 13.7775C14.2043 13.5575 14.3473 13.2935 14.4463 12.9855C14.5453 12.6775 14.5948 12.3365 14.5948 11.9625C14.5948 11.2805 14.5068 10.571 14.3308 9.834C14.1658 9.097 13.9403 8.404 13.6543 7.755C13.3683 7.106 13.0383 6.5395 12.6643 6.0555C12.3013 5.5715 11.9273 5.236 11.5423 5.049H16.0963C15.7333 5.159 15.4473 5.3955 15.2383 5.7585C15.0403 6.1215 14.9413 6.5835 14.9413 7.1445V12.177Z" fill="white"/>
</svg>
